<svg xmlns="http://www.w3.org/2000/svg" viewBox="0 0 120 120" role="img" aria-labelledby="title desc">
  <title id="title">Sritej logo</title>
  <desc id="desc">Letter S inside a rounded gradient square.</desc>
  <defs>
    <linearGradient id="grad" x1="0%" y1="0%" x2="100%" y2="100%">
      <stop offset="0%" stop-color="#0a4981" />
      <stop offset="100%" stop-color="#1594a7" />
    </linearGradient>
  </defs>
  <rect width="120" height="120" rx="18" fill="url(#grad)" />
  <path d="M40 36c0-6.6 6.5-12 20-12 10.5 0 16.5 3.5 19 10.5 0.9 2.5 0.9 5.5 0 8-1.8 5.3-6.5 8.5-14 9.8l-10 1.7c-4.6 0.8-7 2.4-7 5 0 3.8 3.6 6 10.5 6 8 0 12.4-2.2 13.4-6.7 0.3-1.2 0.4-2.4 0.3-3.6h11.1c0.5 3.5 0.2 6.9-1 10-2.8 7.8-10.1 12.8-24 12.8-14.5 0-22.7-5.8-22.7-17.1 0-8.7 5.7-14.3 16.8-16.2l10.3-1.8c4.5-0.8 7-2.3 7.4-4.4 0.2-1 0-2-0.4-2.9-1.1-2.6-4.3-4-9.7-4-7.6 0-11.8 2.6-12.5 7.9-0.1 0.8-0.1 1.6-0.1 2.5H40.1c-0.1-2-0.1-4 0.1-6z" fill="#f4fbff" />
</svg>
